<?xml version="1.0" standalone="no"?>
<!DOCTYPE svg PUBLIC "-//W3C//DTD SVG 20010904//EN"
 "http://www.w3.org/TR/2001/REC-SVG-20010904/DTD/svg10.dtd">
<svg version="1.0" xmlns="http://www.w3.org/2000/svg"
 width="600.000000pt" height="600.000000pt" viewBox="0 0 600.000000 600.000000"
 preserveAspectRatio="xMidYMid meet">
<g transform="translate(0.000000,600.000000) scale(0.100000,-0.100000)"
fill="#000000" stroke="none">
<path d="M2357 4146 c-97 -36 -166 -113 -187 -210 -8 -35 -10 -203 -8 -531 l3
-480 27 -51 c30 -57 90 -115 145 -141 35 -17 80 -18 543 -18 l505 0 57 28
c137 67 196 207 152 358 -15 52 -36 74 -493 532 -340 342 -489 484 -521 500
-56 27 -168 34 -223 13z m148 -16 c3 -5 12 -10 18 -10 7 0 6 4 -3 10 -8 5 -10
10 -4 10 7 0 22 -9 35 -20 14 -11 18 -19 9 -17 -8 2 -12 2 -7 0 4 -3 4 -10 0
-16 -3 -6 4 -3 18 6 26 19 43 22 34 7 -3 -5 -2 -10 4 -10 17 0 201 -192 194
-203 -3 -6 -1 -7 5 -3 6 4 25 -6 42 -23 l31 -29 -133 -4 c-120 -3 -138 -6
-188 -30 -115 -57 -165 -138 -164 -268 1 -120 10 -133 363 -484 273 -271 345
-348 299 -320 -16 10 -54 12 -401 13 -176 1 -296 5 -293 10 4 5 -3 7 -14 4
-13 -4 -20 0 -20 10 0 8 -8 14 -17 13 -10 0 -17 5 -15 12 1 8 -1 11 -6 8 -14
-8 -65 51 -57 65 5 7 4 10 -2 6 -6 -4 -16 0 -23 8 -7 8 -10 15 -6 15 3 0 0 16
-9 35 -12 30 -14 115 -14 518 0 458 1 484 20 525 11 23 22 42 25 42 3 0 2 -5
-2 -12 -4 -7 -3 -8 4 -4 6 4 9 13 6 20 -5 13 52 76 69 76 5 0 5 5 1 12 -5 7
-3 8 5 4 7 -5 21 0 31 9 16 15 22 16 35 5 9 -7 18 -10 22 -6 3 3 0 7 -8 7 -22
2 42 16 78 18 17 0 35 -3 38 -9z m409 -340 c18 0 58 -49 50 -62 -4 -6 -3 -8 3
-5 6 4 32 -14 58 -39 37 -37 44 -49 34 -56 -11 -8 -11 -9 2 -5 20 7 113 -78
103 -94 -4 -7 -2 -10 6 -7 17 5 124 -98 115 -112 -3 -5 0 -7 9 -4 9 3 17 -2
20 -14 4 -11 18 -28 32 -37 13 -9 22 -20 19 -25 -3 -6 1 -7 9 -4 8 3 17 -2 20
-14 4 -10 23 -31 44 -46 20 -14 34 -26 30 -26 -3 0 10 -17 31 -38 20 -21 40
-36 45 -33 5 2 6 -3 3 -13 -4 -9 -3 -14 2 -11 11 6 23 -10 29 -40 10 -44 5
-182 -8 -210 -7 -16 -14 -33 -14 -36 -2 -16 -86 -84 -126 -103 -57 -26 -285
-37 -329 -15 -38 19 -113 98 -105 111 4 7 2 8 -5 4 -15 -9 -85 59 -76 74 3 5
0 7 -7 5 -8 -3 -25 6 -38 20 -23 25 -23 25 -4 47 l19 23 -22 -18 c-21 -18 -22
-18 -58 14 -20 18 -33 39 -30 46 3 8 0 11 -6 8 -11 -8 -99 76 -99 94 0 7 -4
10 -9 7 -10 -6 -71 58 -71 74 0 6 -4 9 -8 6 -14 -8 -119 107 -126 138 -6 23
-9 27 -17 15 -7 -11 -9 -9 -9 8 0 12 -4 24 -9 27 -13 8 -22 82 -15 126 4 22
10 37 14 35 5 -3 6 3 3 13 -2 11 3 26 11 35 9 8 16 21 16 28 0 18 91 99 111
99 10 0 19 5 21 12 3 9 46 13 144 16 76 2 144 4 149 6 6 2 14 -3 18 -10 4 -8
14 -14 21 -14z"/>
<path d="M2485 4100 c-3 -6 1 -7 9 -4 18 7 21 14 7 14 -6 0 -13 -4 -16 -10z"/>
<path d="M2640 4035 c0 -2 6 -8 13 -14 10 -8 14 -7 14 2 0 8 -6 14 -14 14 -7
0 -13 -1 -13 -2z"/>
<path d="M2724 3952 c0 -10 6 -19 13 -19 8 0 9 6 2 19 -5 10 -11 18 -12 18 -2
0 -3 -8 -3 -18z"/>
<path d="M2205 3950 c-3 -5 -1 -10 4 -10 6 0 11 5 11 10 0 6 -2 10 -4 10 -3 0
-8 -4 -11 -10z"/>
<path d="M2806 3861 c-4 -5 -2 -12 3 -15 5 -4 12 -2 15 3 4 5 2 12 -3 15 -5 4
-12 2 -15 -3z"/>
<path d="M2195 2950 c3 -5 8 -10 11 -10 2 0 4 5 4 10 0 6 -5 10 -11 10 -5 0
-7 -4 -4 -10z"/>
<path d="M2910 3776 c0 -2 7 -7 16 -10 8 -3 12 -2 9 4 -6 10 -25 14 -25 6z"/>
<path d="M2471 3664 c0 -11 3 -14 6 -6 3 7 2 16 -1 19 -3 4 -6 -2 -5 -13z"/>
<path d="M3531 3094 c0 -11 3 -14 6 -6 3 7 2 16 -1 19 -3 4 -6 -2 -5 -13z"/>
<path d="M3435 2791 c-3 -5 -2 -12 3 -15 5 -3 9 1 9 9 0 17 -3 19 -12 6z"/>
<path d="M2936 3820 c6 -6 132 -11 359 -12 270 -2 349 -6 353 -16 2 -7 13 -17
24 -23 16 -9 19 -8 13 3 -4 7 1 4 12 -7 10 -11 33 -31 50 -44 19 -15 29 -31
25 -40 -3 -9 -1 -12 7 -7 9 6 10 0 6 -21 -5 -21 -4 -24 4 -13 11 15 16 8 22
-30 5 -37 9 -969 4 -1007 -4 -30 -12 -44 -26 -48 -14 -5 -17 -10 -10 -18 6 -8
-3 -24 -29 -49 -20 -21 -40 -35 -44 -31 -3 3 -6 -2 -6 -12 0 -10 -3 -15 -7
-12 -3 4 -17 0 -30 -8 -32 -22 -130 -33 -173 -20 -46 13 -62 24 -54 37 4 7 0
7 -13 0 -16 -9 -24 -5 -48 23 -15 19 -33 32 -38 28 -6 -4 -8 0 -4 10 4 12 2
14 -10 10 -12 -5 -15 -2 -11 9 4 9 1 15 -5 14 -7 0 -14 4 -15 9 -7 20 -25 35
-35 28 -6 -4 -8 0 -4 10 4 11 2 14 -9 10 -17 -6 -18 8 -1 27 10 12 9 12 -5 1
-18 -13 -43 -6 -33 9 3 5 -4 15 -15 23 -11 7 -17 17 -13 21 4 4 -1 4 -12 0
-15 -6 -17 -4 -12 10 4 10 3 15 -4 11 -5 -4 -16 -1 -24 5 -8 7 -15 8 -15 4 0
-19 267 -274 310 -296 54 -27 160 -36 217 -18 58 19 127 75 165 132 l33 53 3
506 c3 487 2 508 -17 560 -25 65 -76 121 -145 157 l-51 27 -350 3 c-244 2
-347 0 -339 -8z"/>
<path d="M3313 3773 c43 -2 110 -2 150 0 40 1 5 3 -78 3 -82 0 -115 -2 -72 -3z"/>
<path d="M3791 2624 c0 -11 3 -14 6 -6 3 7 2 16 -1 19 -3 4 -6 -2 -5 -13z"/>
<path d="M1805 2231 c-3 -5 -2 -12 3 -15 5 -3 9 1 9 9 0 17 -3 19 -12 6z"/>
<path d="M2811 2217 c-13 -21 -12 -21 5 -5 10 10 16 20 13 22 -3 3 -11 -5 -18
-17z"/>
<path d="M1169 2207 c-55 -37 -63 -95 -22 -146 10 -12 50 -33 88 -47 106 -39
133 -75 80 -110 -35 -23 -88 -13 -131 25 -37 33 -64 32 -64 -3 0 -47 72 -89
151 -89 89 0 139 41 139 113 0 46 -42 86 -118 111 -74 24 -102 43 -102 69 0
50 91 61 138 17 32 -31 57 -35 66 -10 8 20 -21 63 -55 80 -41 22 -131 16 -170
-10z m179 -28 c-2 -3 4 -14 12 -25 14 -18 14 -18 -2 -5 -10 7 -16 17 -13 21 3
5 0 11 -5 13 -7 4 -6 5 1 4 6 -2 9 -5 7 -8z m-172 -26 c-4 -16 -9 -36 -13 -47
-3 -12 -1 -16 6 -12 6 4 11 2 11 -3 0 -6 15 -17 33 -24 17 -8 39 -22 47 -33
12 -14 9 -14 -14 4 -15 12 -32 19 -36 17 -5 -3 -11 -1 -15 5 -4 6 -10 8 -15 5
-22 -14 -36 72 -17 103 14 21 20 13 13 -15z m195 -178 c1 -11 3 -29 4 -41 3
-26 -24 -59 -56 -68 -22 -6 -22 -6 -4 5 30 18 51 42 49 59 0 8 -2 25 -2 37 -1
12 -11 24 -21 28 -11 3 -22 13 -25 21 -5 12 -1 12 24 -3 17 -9 31 -26 31 -38z
m-196 -84 c-6 -5 -25 10 -25 20 0 5 6 4 14 -3 8 -7 12 -15 11 -17z"/>
<path d="M1410 2226 c0 -2 8 -10 18 -17 15 -13 16 -12 3 4 -13 16 -21 21 -21
13z"/>
<path d="M1913 2050 c-51 -99 -90 -187 -87 -194 8 -20 34 -28 49 -16 6 5 20
28 30 49 l17 40 94 0 94 1 25 -51 c27 -51 48 -60 68 -29 7 12 -14 62 -82 198
-50 100 -97 182 -104 182 -6 0 -53 -81 -104 -180z m117 114 c-7 -7 -18 -10
-26 -7 -11 4 -12 9 -4 19 7 7 18 10 26 7 11 -4 12 -9 4 -19z m24 -43 c-7 -7
-34 21 -28 31 3 5 12 1 19 -9 7 -10 12 -20 9 -22z m-44 25 c0 -3 -12 -18 -26
-33 l-27 -28 17 33 c14 27 36 44 36 28z m41 -93 c18 -38 35 -71 37 -75 2 -5
-28 -8 -67 -8 -40 0 -71 4 -71 10 0 9 62 140 66 140 1 0 17 -30 35 -67z m-108
-18 c-13 -25 -22 -45 -18 -45 4 0 1 -8 -6 -17 -12 -15 -12 -16 5 -10 16 6 17
5 6 -8 -9 -11 -15 -13 -20 -5 -5 7 -10 2 -14 -14 -3 -14 -10 -26 -15 -26 -11
0 18 62 33 72 6 4 8 8 3 8 -11 0 37 90 49 90 1 0 -9 -20 -23 -45z m156 1 c-3
-3 -11 5 -18 17 -13 21 -12 21 5 5 10 -10 16 -20 13 -22z m19 -34 c6 -18 -15
-14 -22 4 -4 10 -1 14 6 12 6 -2 14 -10 16 -16z m17 -32 c4 -6 3 -10 -2 -9
-24 4 -25 -3 -3 -14 14 -8 24 -19 23 -25 -2 -7 2 -12 9 -12 6 0 8 -3 5 -6 -9
-9 -38 16 -31 27 3 5 -2 9 -10 9 -18 0 -29 16 -21 30 8 13 22 13 30 0z m-260
-80 c3 -5 -1 -10 -10 -10 -9 0 -13 5 -10 10 3 6 8 10 10 10 2 0 7 -4 10 -10z
m309 -16 c3 -8 2 -12 -4 -9 -6 3 -10 10 -10 16 0 14 7 11 14 -7z"/>
<path d="M2661 2211 c-7 -12 -11 -87 -11 -185 0 -136 3 -167 16 -180 31 -32
54 -9 54 53 0 35 6 51 26 72 l26 27 48 -56 c89 -107 98 -114 120 -102 34 18
23 47 -49 128 l-69 79 71 71 c61 61 70 75 61 90 -24 37 -48 25 -142 -72 l-91
-94 -3 91 c-3 86 -4 92 -25 95 -14 2 -26 -4 -32 -17z m259 -30 c0 -4 -11 -14
-25 -21 -13 -7 -23 -16 -22 -19 1 -3 -1 -7 -5 -8 -11 -4 -8 9 7 29 6 10 15 15
18 11 4 -3 7 1 7 11 0 9 5 14 10 11 6 -3 10 -10 10 -14z m-220 -77 c0 -52 3
-65 19 -74 25 -13 34 -13 26 0 -4 6 -2 9 4 8 6 -2 26 15 44 36 25 29 36 36 42
26 5 -8 4 -11 -3 -6 -6 3 -17 -7 -26 -24 -8 -17 -10 -28 -5 -25 5 4 9 -1 9
-11 0 -9 11 -27 25 -40 14 -13 24 -27 23 -31 -2 -4 0 -8 3 -8 13 0 48 -38 43
-46 -3 -5 2 -9 10 -9 9 0 16 -4 16 -8 0 -23 -15 -15 -58 30 -26 28 -45 52 -42
54 7 5 -43 39 -53 36 -5 -1 -6 2 -2 8 3 5 2 10 -4 10 -5 0 -13 -5 -16 -11 -4
-6 -13 -8 -19 -6 -7 3 -13 -1 -13 -9 0 -7 5 -10 11 -7 6 3 1 -4 -11 -16 -20
-19 -29 -46 -24 -74 1 -5 -3 -6 -8 -3 -5 3 -7 63 -6 133 2 85 -1 133 -9 143
-10 13 -9 13 7 1 13 -10 17 -28 17 -77z m-2 -232 c2 -7 -1 -12 -8 -12 -6 0 -9
4 -6 9 4 5 1 12 -4 14 -6 3 -5 4 2 3 6 -1 14 -8 16 -14z"/>
<path d="M3037 2223 c-4 -3 -7 -89 -7 -189 0 -171 1 -184 19 -194 15 -8 24 -6
36 7 14 14 16 34 14 135 -3 81 -1 114 6 105 76 -104 122 -157 134 -157 15 1
101 106 130 158 12 23 12 25 -9 19 -21 -5 -21 -5 2 16 13 12 31 33 40 47 13
19 17 21 17 8 1 -9 -3 -20 -9 -23 -5 -3 -10 -11 -10 -16 0 -6 5 -7 10 -4 11 7
5 -64 -6 -74 -4 -3 -4 4 -1 17 3 15 1 22 -9 22 -11 0 -14 -24 -14 -125 0 -109
2 -125 18 -134 11 -6 24 -6 35 0 15 9 17 30 17 195 0 249 -4 250 -152 47 -29
-40 -55 -72 -58 -72 -3 0 -43 49 -89 110 -78 102 -97 119 -114 102z m33 -44
c0 -5 5 -7 10 -4 6 4 10 3 9 -2 -4 -15 13 -43 22 -37 5 3 6 -3 2 -12 -5 -14
-3 -16 12 -10 11 4 16 4 12 0 -4 -4 -1 -14 6 -22 9 -12 6 -12 -14 1 -33 22
-59 13 -59 -22 0 -14 -4 -31 -8 -38 -4 -6 -7 11 -7 38 0 27 3 49 8 49 4 0 5 5
1 12 -10 16 -11 58 -2 58 4 0 8 -5 8 -11z m125 -151 c24 -25 25 -29 8 -19 -13
6 -27 20 -33 31 -15 27 -10 25 25 -12z m96 -9 c-12 -10 -22 -21 -21 -24 1 -8
-23 -30 -36 -32 -6 -1 -11 5 -11 13 0 8 5 14 11 13 24 -3 37 1 31 10 -3 6 4
15 15 21 11 6 17 16 14 22 -5 7 -2 8 6 3 10 -6 8 -12 -9 -26z m126 11 c-3 -11
-2 -20 1 -20 4 0 7 -25 7 -55 0 -30 -3 -55 -7 -55 -7 0 -16 118 -10 138 7 20
15 14 9 -8z m-347 -134 c0 -3 -4 -8 -10 -11 -5 -3 -10 -1 -10 4 0 6 5 11 10
11 6 0 10 -2 10 -4z"/>
<path d="M3556 2221 c-4 -6 -7 -92 -7 -192 -1 -191 3 -209 43 -188 17 9 18 25
16 197 -3 183 -3 187 -25 190 -11 2 -24 -1 -27 -7z m32 -195 c1 -80 -2 -147
-7 -150 -5 -4 -10 55 -10 134 -2 121 2 160 13 160 1 0 3 -65 4 -144z"/>
<path d="M3714 2217 c-2 -7 -3 -94 -2 -192 l3 -180 28 -3 c16 -2 29 2 32 10 2
7 6 72 7 145 3 127 2 131 -15 115 -16 -14 -18 -30 -15 -119 1 -57 -1 -103 -5
-103 -5 0 -5 5 -2 10 3 6 1 10 -5 10 -6 0 -9 4 -6 8 3 5 6 66 7 136 1 90 4
126 13 123 6 -2 10 -12 10 -21 -1 -10 0 -15 3 -12 3 3 14 1 25 -5 16 -8 17
-13 7 -25 -10 -12 -7 -20 12 -42 176 -194 214 -232 230 -232 18 0 19 10 19
190 0 167 -2 191 -16 197 -9 3 -24 2 -33 -4 -13 -9 -16 -31 -16 -137 0 -69 -1
-126 -3 -126 -1 0 -17 17 -35 37 -111 128 -212 233 -224 233 -7 0 -16 -6 -19
-13z m320 -39 c-7 -10 -6 -243 1 -277 2 -11 -2 -24 -8 -27 -7 -4 -9 -4 -5 1 5
5 -1 15 -13 23 -11 8 -18 20 -15 27 3 9 -2 12 -15 10 -11 -2 -17 0 -14 6 4 5
1 9 -5 9 -6 0 -8 5 -4 12 6 9 9 9 12 0 6 -18 39 -14 46 5 4 10 7 58 6 108 -1
49 0 95 1 100 1 6 1 14 0 18 -1 5 3 6 9 2 6 -3 8 -11 4 -17z m-170 -114 c3 -8
2 -12 -4 -9 -6 3 -10 10 -10 16 0 14 7 11 14 -7z m46 -59 c0 -5 -5 -3 -10 5
-5 8 -10 20 -10 25 0 6 5 3 10 -5 5 -8 10 -19 10 -25z m35 -25 c3 -5 1 -10 -4
-10 -6 0 -11 5 -11 10 0 6 2 10 4 10 3 0 8 -4 11 -10z"/>
<path d="M4653 2215 c-39 -17 -53 -42 -53 -93 0 -54 34 -86 123 -114 78 -26
106 -53 88 -87 -24 -44 -116 -36 -160 15 -17 20 -25 23 -41 14 -24 -13 -25
-28 -4 -58 39 -56 157 -75 224 -36 42 24 62 73 49 119 -11 38 -36 59 -97 80
-26 10 -60 22 -75 27 -56 21 -58 70 -3 88 39 13 91 -3 107 -31 11 -21 44 -26
54 -8 13 20 -6 60 -38 79 -38 24 -126 26 -174 5z m15 -34 c-7 -11 -16 -17 -21
-14 -4 3 0 11 10 19 24 18 25 17 11 -5z m172 -26 c0 -3 -11 2 -24 12 -13 10
-22 22 -19 26 5 8 43 -26 43 -38z m-198 -23 c-2 -11 2 -23 7 -26 6 -4 7 -14 4
-23 -4 -11 -3 -14 6 -9 7 5 20 1 29 -7 9 -8 28 -18 42 -21 49 -14 80 -29 80
-38 0 -6 -10 -4 -22 4 -13 8 -42 20 -65 26 -24 7 -43 17 -43 21 0 5 -8 8 -17
7 -11 0 -17 6 -17 17 1 9 -3 17 -10 17 -6 0 -12 14 -13 31 -2 20 2 29 10 26 7
-2 11 -13 9 -25z m213 -174 c2 -12 -4 -30 -13 -38 -14 -13 -15 -12 -9 4 5 11
1 29 -9 44 -10 15 -11 21 -3 17 9 -6 10 -3 5 11 -7 18 -6 18 10 2 9 -9 18 -27
19 -40z m-20 -68 c-3 -5 -11 -10 -16 -10 -6 0 -7 5 -4 10 3 6 11 10 16 10 6 0
7 -4 4 -10z m-150 -10 c3 -6 -1 -7 -9 -4 -18 7 -21 14 -7 14 6 0 13 -4 16 -10z"/>
<path d="M4836 1967 c3 -10 9 -15 12 -12 3 3 0 11 -7 18 -10 9 -11 8 -5 -6z"/>
<path d="M1497 2213 c-4 -3 -7 -86 -7 -184 0 -161 2 -179 18 -188 35 -19 52 4
52 69 l0 60 66 0 c115 0 164 41 164 136 0 39 -5 51 -34 80 l-34 34 -109 0
c-60 0 -113 -3 -116 -7z m48 -33 c-7 -8 -16 -35 -18 -60 -3 -35 -4 -32 -4 17
0 53 3 61 18 60 16 -1 16 -3 4 -17z m193 -15 c32 -36 41 -68 22 -80 -6 -4 -8
-10 -5 -15 9 -14 -14 -52 -27 -44 -7 5 -6 10 4 15 24 13 21 82 -4 115 -12 16
-27 32 -33 36 -6 5 -6 8 0 8 6 0 25 -16 43 -35z m-33 -20 c30 -29 32 -54 5
-88 -17 -22 -29 -26 -85 -29 l-65 -3 0 73 0 72 60 0 c51 0 65 -4 85 -25z
m-156 -135 c3 -3 8 -12 9 -20 2 -8 0 -12 -4 -8 -4 4 -12 1 -18 -7 -9 -12 -11
-5 -13 32 -2 41 -1 45 9 28 6 -11 14 -22 17 -25z m-22 -109 c0 -11 -5 -18 -9
-15 -4 3 -5 11 -1 19 7 21 12 19 10 -4z"/>
<path d="M2266 2203 c-4 -9 -6 -90 -5 -180 0 -130 4 -166 16 -178 11 -11 19
-12 34 -5 16 9 19 22 19 81 0 52 -3 70 -12 66 -8 -2 -13 -22 -13 -50 1 -26 -2
-47 -7 -47 -11 0 -15 290 -3 301 12 12 35 12 35 -2 0 -5 -5 -7 -12 -3 -6 4 -8
3 -4 -4 3 -6 2 -13 -4 -17 -17 -10 -12 -121 5 -135 9 -7 13 -15 10 -18 -13
-13 22 -32 59 -32 39 0 43 -3 80 -61 54 -83 63 -91 87 -79 27 15 24 25 -22 93
-32 46 -38 61 -27 68 7 5 16 9 21 9 14 0 47 65 47 93 0 36 -23 81 -52 101 -34
24 -243 23 -252 -1z m257 -35 c7 2 9 0 4 -4 -4 -4 0 -16 10 -26 26 -29 9 -21
-23 10 -16 16 -30 35 -32 43 -1 8 4 6 14 -6 8 -11 21 -18 27 -17z m-43 -18
c11 -11 20 -33 20 -48 0 -44 -30 -64 -105 -69 l-65 -5 0 71 0 71 65 0 c52 0
69 -4 85 -20z m60 -58 c0 -5 -7 -17 -16 -28 -8 -10 -14 -14 -11 -9 2 6 7 18
10 28 7 17 17 23 17 9z m-20 -56 c0 -2 -7 -7 -16 -10 -8 -3 -12 -2 -9 4 6 10
25 14 25 6z m-51 -37 c-8 -16 -14 -18 -22 -10 -9 9 -8 14 3 21 24 16 31 11 19
-11z m4 -34 c-3 -9 -8 -14 -10 -11 -3 3 -2 9 2 15 9 16 15 13 8 -4z m42 -67
c4 -7 -3 -2 -14 12 -11 14 -21 32 -21 40 0 13 5 5 35 -52z"/>
<path d="M4164 2207 c-2 -7 -3 -91 -2 -187 l3 -175 117 0 c113 0 117 1 160 30
73 51 106 146 77 222 -14 38 -67 92 -106 109 -43 19 -242 20 -249 1z m115 -16
c-26 -4 -54 -13 -62 -20 -20 -16 -43 -5 -28 13 6 7 37 12 73 13 59 1 60 0 17
-6z m94 2 c-7 -2 -19 -2 -25 0 -7 3 -2 5 12 5 14 0 19 -2 13 -5z m52 -23 c3
-5 1 -10 -4 -10 -6 0 -11 5 -11 10 0 6 2 10 4 10 3 0 8 -4 11 -10z m-24 -33
c40 -27 59 -60 59 -105 0 -82 -60 -127 -172 -131 l-58 -2 0 130 0 131 69 0
c54 0 75 -5 102 -23z m43 11 c-5 -8 -2 -9 9 -5 11 4 17 1 17 -9 0 -12 -4 -13
-20 -4 -17 9 -20 30 -4 30 3 0 2 -5 -2 -12z m43 -35 c-4 -3 -2 -12 4 -20 6 -7
8 -13 5 -13 -4 0 -2 -8 3 -18 7 -14 6 -19 -4 -19 -7 0 -11 6 -8 13 2 6 -1 15
-6 19 -6 3 -9 11 -6 16 4 5 0 9 -7 9 -9 0 -9 3 2 10 17 11 26 13 17 3z m-287
-73 c0 -22 -4 -40 -10 -40 -5 0 -10 18 -10 40 0 22 5 40 10 40 6 0 10 -18 10
-40z m291 -33 c-10 -9 -11 -8 -5 6 3 10 9 15 12 12 3 -3 0 -11 -7 -18z m-1
-37 c-6 -11 -15 -20 -21 -20 -6 0 -7 -5 -4 -10 8 -13 -22 -43 -34 -36 -5 3
-11 -1 -15 -9 -3 -8 -11 -15 -17 -15 -7 0 -2 11 11 25 12 13 26 22 30 20 5 -3
11 7 14 20 4 14 11 23 16 20 6 -3 10 1 10 9 0 9 5 16 10 16 7 0 7 -6 0 -20z
m-268 -80 l22 -20 -27 2 c-18 2 -27 8 -27 20 0 23 6 23 32 -2z m155 -16 c-3
-3 -12 -4 -19 -1 -8 3 -5 6 6 6 11 1 17 -2 13 -5z"/>
<path d="M1303 2115 c0 -8 4 -12 9 -9 5 3 6 10 3 15 -9 13 -12 11 -12 -6z"/>
<path d="M4715 1961 c-3 -5 -2 -12 3 -15 5 -3 9 1 9 9 0 17 -3 19 -12 6z"/>
</g>
</svg>
